<?xml version="1.0" encoding="UTF-8" standalone="no"?>
<svg
   width="230"
   height="335"
   viewBox="0 0 230 335"
   fill="none"
   version="1.1"
   id="svg48"
   sodipodi:docname="heart-lung-interactions.svg"
   inkscape:version="1.2 (dc2aeda, 2022-05-15)"
   xmlns:inkscape="http://www.inkscape.org/namespaces/inkscape"
   xmlns:sodipodi="http://sodipodi.sourceforge.net/DTD/sodipodi-0.dtd"
   xmlns="http://www.w3.org/2000/svg"
   xmlns:svg="http://www.w3.org/2000/svg">
  <sodipodi:namedview
     id="namedview50"
     pagecolor="#ffffff"
     bordercolor="#999999"
     borderopacity="1"
     inkscape:showpageshadow="0"
     inkscape:pageopacity="1"
     inkscape:pagecheckerboard="0"
     inkscape:deskcolor="#d1d1d1"
     showgrid="false"
     inkscape:zoom="1.9925636"
     inkscape:cx="11.542919"
     inkscape:cy="149.05421"
     inkscape:window-width="1920"
     inkscape:window-height="1043"
     inkscape:window-x="0"
     inkscape:window-y="0"
     inkscape:window-maximized="1"
     inkscape:current-layer="g41" />
  <g
     clip-path="url(#clip0_3_57)"
     id="g41">
    <rect
       width="230"
       height="335"
       fill="white"
       id="rect2"
       inkscape:export-filename="../background-heart-lung-interactions.pdf"
       inkscape:export-xdpi="300"
       inkscape:export-ydpi="300" />
    <rect
       x="12"
       y="25"
       width="204"
       height="288"
       rx="19"
       stroke="black"
       stroke-linecap="round"
       id="rect4"
       style="fill:#ffffff;stroke:#43658b;stroke-width:1.8;stroke-dasharray:none" />
    <mask
       id="path-2-inside-1_3_57"
       fill="white">
      <path
         fill-rule="evenodd"
         clip-rule="evenodd"
         d="M52.5 127.769V116.837C52.5 108.429 61.5954 101.554 70 101.323C78.8489 101.079 87.3922 101.061 96 102C99.1163 102.34 101.632 102.93 104.052 103.497C107.431 104.289 110.623 105.037 115 105C119.145 104.965 122.163 104.241 125.356 103.476C127.653 102.925 130.039 102.353 133 102C142.56 100.86 152.371 100.929 162 101.245C170.365 101.52 179.5 108.468 179.5 116.837V128.645C174.982 126.936 170.048 126 164.788 126C139.383 126 124.364 144 116 167.538C107.636 144 89.8293 126 64.4242 126C60.1479 126 56.1657 126.619 52.5 127.769ZM42 133.063V116.837C42 100.269 53.4315 90 70 90H82.6444C87.4766 90 92.2372 91.1673 96.5214 93.4025L100.166 95.3043C108.275 99.5347 117.87 99.8355 126.228 96.1211L134.182 92.5857C138.018 90.8809 142.169 90 146.366 90H162C178.569 90 191 100.269 191 116.837V135.325C201.6 144.039 208 157.948 208 173.077C208 192.595 190.717 212.882 171 231.783V354H159V242.938C156.611 245.108 154.23 247.253 151.882 249.369C135.572 264.06 120.829 277.34 116 288C110.929 278.43 97.3721 266.152 82.1745 252.388L82.1744 252.388C79.4883 249.955 76.7509 247.476 74 244.957V275.497C72.1535 279.875 71 286.097 71 293C71 299.903 72.1535 306.125 74 310.503V354H62V309.503C63.8465 305.125 65 298.903 65 292C65 285.097 63.8465 278.875 62 274.497V233.709C41.8484 214.224 24 193.089 24 173.077C24 156.562 30.4329 141.5 42 133.063Z"
         id="path6" />
    </mask>
    <path
       fill-rule="evenodd"
       clip-rule="evenodd"
       d="m 52.5,127.769 v -10.932 c 0,-8.408 9.0954,-15.283 17.5,-15.514 8.8489,-0.244 17.3922,-0.262 26,0.677 3.1163,0.34 5.632,0.93 8.052,1.497 3.379,0.792 6.571,1.54 10.948,1.503 4.145,-0.035 7.163,-0.759 10.356,-1.524 2.297,-0.551 4.683,-1.123 7.644,-1.476 9.56,-1.14 19.371,-1.071 29,-0.755 8.365,0.275 17.5,7.223 17.5,15.592 v 11.808 C 174.982,126.936 170.048,126 164.788,126 139.383,126 124.364,144 116,167.538 107.636,144 89.8293,126 64.4242,126 60.1479,126 56.1657,126.619 52.5,127.769 Z M 42,133.063 V 116.837 C 42,100.269 53.4315,90 70,90 h 12.6444 c 4.8322,0 9.5928,1.1673 13.877,3.4025 l 3.6446,1.9018 c 8.109,4.2304 17.704,4.5312 26.062,0.8168 l 7.954,-3.5354 C 138.018,90.8809 142.169,90 146.366,90 H 162 c 16.569,0 29,10.269 29,26.837 v 18.488 c 10.6,8.714 17,22.623 17,37.752 0,19.518 -17.283,39.805 -37,58.706 V 336 h -12 v -93.062 c -2.389,2.17 -4.77,4.315 -7.118,6.431 C 135.572,264.06 120.829,277.34 116,288 110.929,278.43 97.3721,266.152 82.1745,252.388 h -10e-5 C 79.4883,249.955 76.7509,247.476 74,244.957 v 30.54 c -1.8465,4.378 -3,10.6 -3,17.503 0,6.903 1.1535,13.125 3,17.503 V 336 H 62 v -26.497 c 1.8465,-4.378 3,-10.6 3,-17.503 0,-6.903 -1.1535,-13.125 -3,-17.503 V 233.709 C 41.8484,214.224 24,193.089 24,173.077 24,156.562 30.4329,141.5 42,133.063 Z"
       fill="#ffffff"
       id="path9"
       sodipodi:nodetypes="cscccccccscscsccsssccccssscsccccccccccsccccsccsc" />
    <path
       d="m 52.5,127.769 h -1 v 1.361 l 1.2993,-0.407 z m 17.5,-26.446 0.0275,1 v 0 z m 26,0.677 0.1084,-0.994 z m 8.052,1.497 -0.228,0.974 z M 115,105 l 0.009,1 z m 10.356,-1.524 0.233,0.972 z M 133,102 l -0.118,-0.993 z m 29,-0.755 -0.033,1 z m 17.5,27.4 -0.354,0.935 1.354,0.513 v -1.448 z m -63.5,38.893 -0.942,0.335 0.942,2.652 0.942,-2.652 z M 42,133.063 42.5893,133.87 43,133.571 v -0.508 z m 54.5214,-39.6605 0.4625,-0.8866 z m 3.6446,1.9018 -0.4621,0.8865 z m 26.062,0.8168 -0.407,-0.9139 z m 7.954,-3.5354 0.406,0.9138 z M 191,135.325 h -1 v 0.473 l 0.365,0.3 z m -20,96.458 -0.692,-0.721 -0.308,0.295 v 0.426 z M 171,336 v 1 h 1 v -1 z m -12,0 h -1 v 1 h 1 z m 0,-93.062 h 1 v -2.26 l -1.673,1.52 z m -7.118,6.431 -0.67,-0.743 z M 116,288 l -0.884,0.468 0.954,1.8 0.841,-1.855 z m -33.8255,-35.612 -0.7526,0.659 0.0383,0.043 0.043,0.039 z m -10e-5,0 0.7526,-0.658 -0.0383,-0.044 -0.043,-0.039 z M 74,244.957 74.6753,244.22 73,242.686 v 2.271 z m 0,30.54 0.9214,0.389 L 75,275.699 v -0.202 z m 0,35.006 h 1 v -0.202 l -0.0786,-0.187 z M 74,336 v 1 h 1 v -1 z m -12,0 h -1 v 1 h 1 z M 62,309.503 61.0786,309.114 61,309.301 v 0.202 z m 0,-35.006 h -1 v 0.202 l 0.0786,0.187 z m 0,-40.788 h 1 v -0.424 L 62.6951,232.99 Z M 51.5,116.837 v 10.932 h 2 v -10.932 z m 18.4725,-16.514 c -4.4486,0.123 -9.0369,1.995 -12.5183,4.926 -3.4812,2.931 -5.9542,7.01 -5.9542,11.588 h 2 c 0,-3.829 2.0746,-7.391 5.2423,-10.058 3.1675,-2.667 7.3292,-4.348 11.2852,-4.456 z m 26.1359,0.683 c -8.6769,-0.946 -17.2749,-0.927 -26.1359,-0.683 l 0.055,2 c 8.8368,-0.244 17.3255,-0.26 25.8641,0.671 z m 8.1726,1.517 c -2.42,-0.567 -4.9892,-1.17 -8.1726,-1.517 l -0.2168,1.988 c 3.0492,0.333 5.5124,0.909 7.9324,1.477 z m 10.71,1.477 c -4.246,0.036 -7.335,-0.685 -10.71,-1.477 l -0.457,1.948 c 3.383,0.793 6.677,1.567 11.185,1.529 z m 10.132,-1.497 c -3.189,0.765 -6.111,1.463 -10.132,1.497 l 0.018,2 c 4.268,-0.037 7.383,-0.786 10.58,-1.552 z m 7.759,-1.496 c -3.025,0.361 -5.463,0.946 -7.759,1.496 l 0.466,1.945 c 2.297,-0.551 4.633,-1.11 7.529,-1.455 z m 29.151,-0.761 c -9.641,-0.3169 -19.513,-0.3882 -29.151,0.761 l 0.236,1.986 c 9.483,-1.131 19.231,-1.064 28.849,-0.748 z m 18.467,16.591 c 0,-4.561 -2.485,-8.647 -5.967,-11.595 -3.484,-2.947 -8.07,-4.851 -12.5,-4.996 l -0.066,1.999 c 3.935,0.129 8.098,1.837 11.274,4.524 3.176,2.688 5.259,6.26 5.259,10.068 z m 0,11.808 v -11.808 h -2 v 11.808 z M 164.788,127 c 5.14,0 9.954,0.915 14.358,2.58 l 0.708,-1.87 C 175.222,125.958 170.168,125 164.788,125 Z m -47.846,40.873 C 125.246,144.505 140.006,127 164.788,127 v -2 c -26.029,0 -41.306,18.495 -49.73,42.204 z M 64.4242,127 c 24.8383,0 42.3568,17.579 50.6338,40.873 l 1.884,-0.669 C 108.492,143.421 90.3962,125 64.4242,125 Z m -11.6249,1.723 C 56.3644,127.605 60.2453,127 64.4242,127 v -2 c -4.3738,0 -8.4571,0.633 -12.2235,1.814 z M 41,116.837 v 16.226 h 2 V 116.837 Z M 70,89 C 61.5099,89 54.2487,91.6335 49.1015,96.4772 43.9472,101.327 41,108.313 41,116.837 h 2 C 43,108.793 45.7685,102.36 50.4721,97.9337 55.1828,93.5008 61.9215,91 70,91 Z m 12.6444,0 H 70 v 2 h 12.6444 z m 14.3395,3.5159 C 92.557,90.2062 87.6376,89 82.6444,89 v 2 c 4.6711,0 9.2731,1.1283 13.4144,3.289 z m 3.6451,1.9018 -3.6451,-1.9018 -0.9251,1.7731 3.6451,1.9018 z m 25.192,0.7895 c -8.078,3.5906 -17.354,3.2999 -25.192,-0.7895 l -0.9251,1.7731 c 8.3791,4.3712 18.2941,4.6822 26.9301,0.8441 z m 7.955,-3.5354 -7.955,3.5354 0.813,1.8277 7.954,-3.5354 z M 146.366,89 c -4.337,0 -8.626,0.9102 -12.59,2.6718 l 0.812,1.8277 C 138.296,91.8515 142.309,91 146.366,91 Z M 162,89 h -15.634 v 2 H 162 Z m 30,27.837 C 192,108.286 188.784,101.3 183.38,96.4605 177.988,91.6315 170.488,89 162,89 v 2 c 8.081,0 15.08,2.5029 20.046,6.9503 C 187,102.387 190,108.82 190,116.837 Z m 0,18.488 v -18.488 h -2 v 18.488 z m 17,37.752 c 0,-15.404 -6.516,-29.605 -17.365,-38.524 l -1.27,1.545 C 200.716,144.607 207,158.223 207,173.077 Z m -37.308,59.428 c 9.874,-9.466 19.183,-19.318 26.026,-29.277 6.838,-9.95 11.282,-20.102 11.282,-30.151 h -2 c 0,9.469 -4.197,19.22 -10.93,29.018 -6.727,9.79 -15.919,19.531 -25.762,28.967 z M 172,336 V 231.783 h -2 V 336 Z m -13,1 h 12 v -2 h -12 z m -1,-94.062 V 336 h 2 v -93.062 z m -5.449,7.174 c 2.348,-2.116 4.731,-4.262 7.122,-6.434 l -1.346,-1.48 c -2.386,2.168 -4.766,4.312 -7.115,6.428 z m -35.64,38.301 c 2.338,-5.161 7.124,-11.041 13.441,-17.519 6.301,-6.461 14.037,-13.431 22.199,-20.782 l -1.339,-1.486 c -8.148,7.339 -15.937,14.355 -22.292,20.872 -6.34,6.501 -11.34,12.59 -13.831,18.089 z M 81.5032,253.129 c 7.6046,6.887 14.771,13.378 20.6708,19.341 5.913,5.976 10.48,11.351 12.942,15.998 l 1.768,-0.936 c -2.609,-4.923 -7.356,-10.473 -13.288,-16.469 -5.9464,-6.009 -13.1572,-12.539 -20.7502,-19.416 z m -0.0814,-0.082 h 10e-5 l 1.5052,-1.317 h -10e-5 z m -8.0971,-7.352 c 2.7532,2.521 5.4926,5.002 8.1784,7.434 l 1.3426,-1.482 c -2.6865,-2.433 -5.4219,-4.91 -8.1704,-7.427 z M 75,275.497 v -30.54 h -2 v 30.54 z M 72,293 c 0,-6.807 1.1397,-12.89 2.9214,-17.114 l -1.8428,-0.778 C 71.1672,279.641 70,286.002 70,293 Z m 2.9214,17.114 C 73.1397,305.89 72,299.807 72,293 h -2 c 0,6.998 1.1672,13.359 3.0786,17.892 z M 75,336 V 310.503 H 73 V 336 Z m -13,1 h 12 v -2 H 62 Z M 61,309.503 V 336 h 2 V 309.503 Z M 64,292 c 0,6.807 -1.1397,12.89 -2.9214,17.114 l 1.8428,0.778 C 64.8328,305.359 66,298.998 66,292 Z M 61.0786,274.886 C 62.8603,279.11 64,285.193 64,292 h 2 c 0,-6.998 -1.1672,-13.359 -3.0786,-17.892 z M 61,233.709 v 40.788 h 2 V 233.709 Z M 23,173.077 c 0,10.296 4.5861,20.783 11.6174,31.078 7.0383,10.304 16.5955,20.515 26.6875,30.273 l 1.3902,-1.438 C 52.6355,223.263 43.1927,213.164 36.2689,203.026 29.3381,192.879 25,182.793 25,173.077 Z M 41.4107,132.255 C 29.5251,140.924 23,156.325 23,173.077 h 2 c 0,-16.279 6.3407,-31.002 17.5893,-39.207 z"
       fill="black"
       mask="url(#path-2-inside-1_3_57)"
       id="path11"
       style="fill:#ab2826;fill-opacity:1;stroke:none;stroke-opacity:1"
       sodipodi:nodetypes="ccccccccccccccccccccccccccccccccccccccccccccccccccccccccccccccccccccccccccccccccccccccccccccccccccccccccccccccccccccccccccccccccccccccccccccccccccccccccccccccccccccccccccccccccccccccccccccccccccccccccccccccccccccccccccccccccccccccccccccccccccccccccccccccccccccccscccccccccccccccccccccccccccccccccccccccccccccccccccccccccccccccccccccccccccccccccccccccccccccccccccccccccccccccccccccccc" />
    <path
       d="m 119,33.4078 v 0.4243 l 0.419,0.0691 C 133.647,36.2476 144.5,48.6069 144.5,63.5 c 0,16.5685 -13.431,30 -30,30 -16.5685,0 -30,-13.4315 -30,-30 0,-14.5479 10.3556,-26.6782 24.098,-29.4197 L 109,34.0001 V 33.59 -0.5 h 10 z"
       fill="white"
       stroke="black"
       id="path13"
       style="fill:#ffffff;stroke:#43658b"
       sodipodi:nodetypes="ccsssssccccc" />
    <path
       d="m 153.65304,83.999999 h -1.34307 V 75.08983 l -2.69602,0.989978 v -1.213947 l 3.83066,-1.438162 h 0.20843 z"
       fill="black"
       id="path15"
       style="fill:#ab2826;fill-opacity:1;stroke:none;stroke-width:1;stroke-opacity:1"
       sodipodi:nodetypes="cccccccc" />
    <path
       d="m 162.41557,233.85142 h -6.88279 v -0.95916 l 3.63594,-4.04102 c 0.53929,-0.61071 0.90867,-1.10567 1.1106,-1.48614 0.20685,-0.38415 0.31028,-0.78062 0.31028,-1.1894 0,-0.54915 -0.16499,-0.99856 -0.49743,-1.34947 -0.33121,-0.35091 -0.77447,-0.52698 -1.32731,-0.52698 -0.66365,0 -1.18078,0.18961 -1.5514,0.57008 -0.36568,0.37553 -0.54791,0.90005 -0.54791,1.57232 h -1.33469 c 0,-0.96654 0.31028,-1.7484 0.93083,-2.34433 0.62549,-0.59593 1.45906,-0.8939 2.50317,-0.8939 0.9764,0 1.7484,0.25734 2.31601,0.772 0.56762,0.50975 0.85081,1.18941 0.85081,2.04145 0,1.03426 -0.65873,2.26553 -1.97618,3.6938 l -2.81345,3.05108 h 5.27352 z"
       fill="black"
       id="path17"
       style="fill:#ab2826;fill-opacity:1;stroke:none;stroke-width:1;stroke-opacity:1"
       sodipodi:nodetypes="cccccscsccccscscccc" />
    <path
       d="m 54.063935,287.08665 h 1.00023 c 0.62846,-0.01 1.12268,-0.17563 1.482414,-0.49619 0.359857,-0.32178 0.539785,-0.75533 0.539785,-1.3031 0,-1.22818 -0.611756,-1.84227 -1.835024,-1.84227 -0.575771,0 -1.036339,0.16581 -1.381703,0.49619 -0.340697,0.32669 -0.511046,0.76147 -0.511046,1.30309 h -1.331224 c 0,-0.83024 0.302132,-1.51803 0.906642,-2.06579 0.609301,-0.55146 1.381703,-0.82657 2.317331,-0.82657 0.988194,0 1.763053,0.26037 2.324331,0.78358 0.561401,0.5232 0.842041,1.25029 0.842041,2.18125 0,0.45565 -0.148733,0.89657 -0.446198,1.32398 -0.292676,0.42617 -0.693308,0.7455 -1.201775,0.95675 0.575648,0.18177 1.019513,0.48513 1.331348,0.9064 0.316625,0.42249 0.474937,0.93833 0.474937,1.5475 0,0.94079 -0.307045,1.68629 -0.921135,2.23775 -0.61409,0.55268 -1.412899,0.82779 -2.396426,0.82779 -0.983526,0 -1.784668,-0.26651 -2.403548,-0.79832 -0.614091,-0.53303 -0.921136,-1.23555 -0.921136,-2.10878 h 1.338471 c 0,0.55145 0.179929,0.9936 0.539785,1.32398 0.359734,0.3316 0.841918,0.49618 1.446428,0.49618 0.64283,0 1.134593,-0.16703 1.475291,-0.50355 0.340574,-0.3353 0.510923,-0.81797 0.510923,-1.44557 0,-0.61041 -0.187052,-1.07712 -0.561279,-1.40381 -0.374226,-0.3267 -0.914012,-0.49373 -1.619233,-0.50356 h -1.00023 z"
       fill="black"
       id="path19"
       style="fill:#ab2826;fill-opacity:1;stroke:none;stroke-width:1;stroke-opacity:1"
       sodipodi:nodetypes="cccssccccscscccscsccccscssccc" />
    <path
       d="m 95.385451,111.20097 h 1.46158 v 1.09248 h -1.46158 v 2.44419 h -1.34554 v -2.44419 h -4.79456 v -0.78881 l 4.71556,-7.298 h 1.42454 z m -4.62174,0 h 3.2762 v -5.16489 l -0.15924,0.29009 z"
       fill="black"
       id="path21"
       style="fill:#ab2826;fill-opacity:1;stroke:none;stroke-width:1;stroke-opacity:1"
       sodipodi:nodetypes="ccccccccccccccccc" />
    <path
       d="M 98.506,64.121495 H 95.047135 L 94.270383,66.27617 H 93.1477 l 3.153108,-8.255697 h 0.952219 l 3.158543,8.255697 H 99.29448 Z M 95.376462,63.2256 h 2.806718 l -1.406271,-3.861345 z m 7.120708,3.05057 h -1.0486 v -8.709277 h 1.0486 z m 3.70899,-1.423212 1.51888,-4.711951 h 1.07184 l -2.19938,6.135163 h -0.80009 l -2.22261,-6.135163 h 1.07181 z m 6.0663,1.53655 c -0.83144,0 -1.50728,-0.272194 -2.02984,-0.816467 -0.5214,-0.548104 -0.78153,-1.279566 -0.78153,-2.194389 v -0.192766 c 0,-0.608604 0.11498,-1.151018 0.34491,-1.627243 0.23456,-0.48017 0.55971,-0.854319 0.97543,-1.122682 0.42037,-0.272194 0.87325,-0.408291 1.36097,-0.408291 0.79778,0 1.41788,0.26267 1.8603,0.788131 0.44244,0.52546 0.66307,1.27771 0.66307,2.256748 v 0.436509 h -4.15606 c 0.0151,0.60489 0.19044,1.09435 0.5272,1.468618 0.34022,0.370433 0.77104,0.555651 1.29246,0.555651 0.37043,0 0.68396,-0.0756 0.94175,-0.22679 0.25664,-0.151192 0.48192,-0.351505 0.67468,-0.601055 l 0.64101,0.498982 c -0.51443,0.78999 -1.28549,1.185044 -2.31435,1.185044 z M 112.1424,60.88954 c -0.42269,0 -0.77803,0.15491 -1.06603,0.46496 -0.28681,0.306101 -0.46447,0.737036 -0.53299,1.292805 h 3.07379 v -0.07944 c -0.0302,-0.533007 -0.17418,-0.945014 -0.43082,-1.236136 -0.25779,-0.294839 -0.605,-0.442199 -1.04395,-0.442199 z m 3.46513,2.262321 c 0,-0.601055 0.11611,-1.141611 0.3507,-1.621666 0.23805,-0.480056 0.56784,-0.850491 0.98705,-1.111304 0.42269,-0.260813 0.9046,-0.391221 1.44574,-0.391221 0.83493,0 1.50961,0.289149 2.02404,0.86756 0.51791,0.578297 0.77686,1.3475 0.77686,2.307726 v 0.07363 c 0,0.59734 -0.11496,1.134064 -0.34604,1.6104 -0.22644,0.472509 -0.55392,0.840971 -0.98009,1.105617 -0.42385,0.264643 -0.91157,0.396911 -1.46316,0.396911 -0.83145,0 -1.50612,-0.28915 -2.02403,-0.867562 -0.51443,-0.578296 -0.77107,-1.343782 -0.77107,-2.296348 z m 1.05441,0.124719 c 0,0.680484 0.15677,1.226729 0.4703,1.638736 0.31702,0.412007 0.74087,0.618011 1.27039,0.618011 0.53301,0 0.9557,-0.207862 1.27039,-0.623701 0.31354,-0.419554 0.47031,-1.005514 0.47031,-1.757765 0,-0.67282 -0.16142,-1.217208 -0.48191,-1.632931 -0.31819,-0.41967 -0.74087,-0.62939 -1.2704,-0.62939 -0.51791,0 -0.93596,0.206004 -1.25297,0.61801 -0.31818,0.412007 -0.47611,1.001683 -0.47611,1.76903 z m 6.98484,2.99959 h -1.0486 v -8.709277 h 1.0486 z m 5.47175,-0.606746 c -0.4076,0.480055 -1.0068,0.720084 -1.7976,0.720084 -0.65378,0 -1.15194,-0.18905 -1.49685,-0.567032 -0.34022,-0.3817 -0.51209,-0.945016 -0.51557,-1.689718 v -3.991751 h 1.04859 v 3.963418 c 0,0.929918 0.37857,1.394876 1.13453,1.394876 0.80126,0 1.33427,-0.298668 1.59903,-0.895893 v -4.462401 h 1.04859 v 6.135163 h -0.9975 z m 6.19171,-1.020611 c 0,-0.283575 -0.10678,-0.502816 -0.32282,-0.657726 -0.21135,-0.158741 -0.5841,-0.294838 -1.11711,-0.40829 -0.52952,-0.113336 -0.95105,-0.249433 -1.26459,-0.408174 -0.31005,-0.158859 -0.53997,-0.347791 -0.69209,-0.567032 -0.14633,-0.219242 -0.22064,-0.480058 -0.22064,-0.782558 0,-0.5027 0.21135,-0.927947 0.63519,-1.275735 0.42734,-0.34779 0.97196,-0.521628 1.63271,-0.521628 0.69556,0 1.25878,0.179527 1.6896,0.538699 0.43546,0.359054 0.65261,0.818322 0.65261,1.377807 h -1.05442 c 0,-0.287291 -0.12307,-0.534865 -0.36926,-0.742843 -0.24155,-0.207864 -0.5481,-0.311793 -0.91853,-0.311793 -0.38205,0 -0.68049,0.08315 -0.89532,0.249435 -0.21599,0.166402 -0.32398,0.383671 -0.32398,0.652034 0,0.253266 0.10108,0.444172 0.30076,0.572721 0.20089,0.12855 0.56204,0.251408 1.08343,0.368577 0.52488,0.117169 0.94989,0.256982 1.27504,0.419554 0.32514,0.162575 0.56552,0.359172 0.72113,0.589677 0.15793,0.22679 0.23805,0.504672 0.23805,0.833536 0,0.548104 -0.21947,0.988444 -0.65842,1.321139 -0.43779,0.328862 -1.00679,0.493295 -1.70702,0.493295 -0.49122,0 -0.92551,-0.08699 -1.30407,-0.260815 -0.3774,-0.173836 -0.67468,-0.415839 -0.88951,-0.725774 -0.21134,-0.313767 -0.31817,-0.652034 -0.31817,-1.014919 h 1.04975 c 0.0187,0.351505 0.15793,0.631248 0.41921,0.839107 0.26476,0.204148 0.61197,0.30622 1.04279,0.30622 0.39715,0 0.71532,-0.07944 0.95336,-0.238169 0.24155,-0.162457 0.36232,-0.377984 0.36232,-0.646345 z"
       fill="black"
       id="path23"
       style="fill:#43658b;stroke:none;stroke-width:1"
       sodipodi:nodetypes="ccccccccccccccccccccccccccscssccssscccscccsscccccsssccscssccscssscscscscsccccccsccccssccccccsccccscsccccscsccscscscccccscs" />
    <path
       d="m 35.601305,174.79229 h -1.777743 v 3.06173 h -1.003261 v -7.5681 h 2.50549 c 0.852516,0 1.507446,0.19375 1.964896,0.58233 0.460963,0.3875 0.691338,0.9528 0.691338,1.69481 0,0.47054 -0.128175,0.88147 -0.384632,1.23172 -0.252945,0.35024 -0.606385,0.61107 -1.060429,0.78459 l 1.777743,3.2129 v 0.0618 h -1.070755 z m -1.777743,-0.81547 h 1.533421 c 0.495562,0 0.888925,-0.12881 1.179981,-0.38538 0.294569,-0.2555 0.441907,-0.59936 0.441907,-1.02838 0,-0.46842 -0.140418,-0.82718 -0.421041,-1.07629 -0.277323,-0.24912 -0.679309,-0.3758 -1.206063,-0.38006 h -1.528205 z m 6.45604,3.8772 h -0.961635 v -5.62418 h 0.961635 z m -1.039562,-7.11565 c 0,-0.1565 0.04674,-0.28744 0.140312,-0.39496 0.09708,-0.10752 0.239104,-0.16182 0.426258,-0.16182 0.187153,0 0.329274,0.0542 0.426257,0.16182 0.09698,0.10752 0.145529,0.23846 0.145529,0.39496 0,0.15542 -0.04854,0.2853 -0.145529,0.38963 -0.09698,0.10433 -0.239104,0.15543 -0.426257,0.15543 -0.187154,0 -0.329169,-0.0511 -0.426258,-0.15543 -0.09358,-0.10433 -0.140312,-0.23421 -0.140312,-0.38963 z m 2.354745,4.25725 c 0,-0.87721 0.202696,-1.57345 0.608195,-2.08977 0.405392,-0.51951 0.942579,-0.78034 1.611454,-0.78034 0.686122,0 1.2215,0.24273 1.606133,0.72818 l 0.04684,-0.62385 H 46.3459 v 5.48898 c 0,0.72817 -0.216642,1.30198 -0.64982,1.72143 -0.429664,0.41838 -1.00837,0.6281 -1.736117,0.6281 -0.405499,0 -0.802268,-0.0862 -1.190414,-0.25976 -0.388146,-0.17246 -0.684419,-0.40986 -0.888818,-0.7122 l 0.498969,-0.577 c 0.412418,0.50993 0.916604,0.76436 1.512662,0.76436 0.467883,0 0.831756,-0.132 1.09162,-0.39496 0.263378,-0.26295 0.395066,-0.63449 0.395066,-1.11248 v -0.48332 c -0.384632,0.44393 -0.909684,0.66536 -1.575046,0.66536 -0.658443,0 -1.192117,-0.26508 -1.601022,-0.79524 -0.405499,-0.53016 -0.608195,-1.25301 -0.608195,-2.16749 z m 0.966852,0.10859 c 0,0.63449 0.129985,1.13378 0.389849,1.49786 0.25997,0.35983 0.623844,0.53975 1.09162,0.53975 0.606492,0 1.051806,-0.27467 1.335942,-0.82612 v -2.56777 c -0.294569,-0.53761 -0.73637,-0.80588 -1.325508,-0.80588 -0.467884,0 -0.83346,0.18204 -1.096838,0.54613 -0.263377,0.36409 -0.395065,0.90276 -0.395065,1.61603 z m 6.201393,-2.19304 c 0.426258,-0.52377 0.98069,-0.78566 1.663406,-0.78566 1.188604,0 1.788176,0.67069 1.798608,2.01206 v 3.71645 h -0.961742 v -3.72177 c -0.0034,-0.40561 -0.09698,-0.70476 -0.280622,-0.89851 -0.180234,-0.19481 -0.462668,-0.29169 -0.8473,-0.29169 -0.311922,0 -0.585732,0.083 -0.821324,0.24911 -0.235698,0.16714 -0.419338,0.38538 -0.551026,0.65578 v 4.00708 h -0.961636 v -7.98435 h 0.961636 z m 6.206608,-2.04292 v 1.36159 h 1.049996 v 0.74308 h -1.049996 v 3.48863 c 0,0.22462 0.04674,0.39496 0.140312,0.50887 0.09358,0.11071 0.252944,0.16714 0.47821,0.16714 0.110929,0 0.263377,-0.0212 0.45745,-0.0628 v 0.77927 c -0.252944,0.0692 -0.498968,0.10433 -0.738074,0.10433 -0.42977,0 -0.753722,-0.12988 -0.972068,-0.38964 -0.218346,-0.25976 -0.327464,-0.62916 -0.327464,-1.10716 v -3.48863 h -1.024126 v -0.74307 h 1.024126 v -1.3616 z m 6.674386,5.68166 1.39311,-4.32007 h 0.982501 l -2.016953,5.62418 h -0.732964 l -2.037606,-5.62418 h 0.982394 z m 5.562006,1.40844 c -0.762346,0 -1.382676,-0.24911 -1.860886,-0.7484 -0.478209,-0.50248 -0.71742,-1.17317 -0.71742,-2.01206 v -0.17672 c 0,-0.55784 0.105712,-1.055 0.317138,-1.49148 0.214832,-0.44073 0.512915,-0.78352 0.894034,-1.02944 0.38474,-0.24912 0.800565,-0.37474 1.247582,-0.37474 0.73126,0 1.299533,0.24166 1.705032,0.72286 0.405392,0.48225 0.608195,1.17103 0.608195,2.06954 v 0.40028 h -3.81024 c 0.01384,0.55358 0.175017,1.00284 0.483426,1.34563 0.311816,0.3396 0.706881,0.50993 1.185091,0.50993 0.339707,0 0.627251,-0.0692 0.862949,-0.20866 0.235591,-0.13839 0.4418,-0.3215 0.618521,-0.55038 l 0.587435,0.45777 c -0.47129,0.72391 -1.178277,1.08587 -2.120857,1.08587 z m -0.119552,-5.04185 c -0.388146,0 -0.713907,0.14159 -0.977285,0.42583 -0.263377,0.28105 -0.426151,0.67601 -0.488535,1.18488 h 2.817305 v -0.0724 c -0.02768,-0.48864 -0.159368,-0.86656 -0.395066,-1.13271 -0.235592,-0.2704 -0.554433,-0.4056 -0.956419,-0.4056 z m 4.340507,-0.68666 0.0312,0.70689 c 0.429664,-0.54081 0.991018,-0.81122 1.684166,-0.81122 1.188604,0 1.788176,0.67069 1.798502,2.01206 v 3.71645 h -0.961636 v -3.72177 c -0.0034,-0.40561 -0.09698,-0.70476 -0.280623,-0.89851 -0.180233,-0.19481 -0.462667,-0.29169 -0.847299,-0.29169 -0.311922,0 -0.585732,0.083 -0.821324,0.24911 -0.235698,0.16714 -0.419338,0.38538 -0.551026,0.65578 v 4.00708 h -0.961636 v -5.62418 z m 6.268886,-1.36159 v 1.36159 h 1.050102 v 0.74308 h -1.050102 v 3.48863 c 0,0.22462 0.04684,0.39496 0.140419,0.50887 0.09358,0.11071 0.252945,0.16714 0.478209,0.16714 0.11093,0 0.263378,-0.0212 0.45745,-0.0628 v 0.77927 c -0.25305,0.0692 -0.499074,0.10433 -0.73818,0.10433 -0.429664,0 -0.753722,-0.12988 -0.972068,-0.38964 -0.218238,-0.25976 -0.327464,-0.62916 -0.327464,-1.10716 v -3.48863 h -1.02402 v -0.74307 h 1.02402 v -1.3616 z m 4.896644,2.22497 c -0.145528,-0.0245 -0.303192,-0.0362 -0.472993,-0.0362 -0.630657,0 -1.058725,0.26828 -1.283883,0.80483 v 3.99217 h -0.961742 v -5.62418 h 0.93566 l 0.01564,0.65046 c 0.315329,-0.50355 0.762346,-0.75479 1.341158,-0.75479 0.187048,0 0.329168,0.0245 0.426152,0.0734 z m 1.933704,4.7608 h -0.961636 v -5.62418 h 0.961636 z m -1.039563,-7.11565 c 0,-0.1565 0.04674,-0.28744 0.140311,-0.39496 0.09709,-0.10752 0.239106,-0.16182 0.426258,-0.16182 0.187154,0 0.329276,0.0542 0.426258,0.16182 0.09698,0.10752 0.145528,0.23846 0.145528,0.39496 0,0.15542 -0.04854,0.2853 -0.145528,0.38963 -0.09698,0.10433 -0.239104,0.15543 -0.426258,0.15543 -0.187152,0 -0.329168,-0.0511 -0.426258,-0.15543 -0.09358,-0.10433 -0.140311,-0.23421 -0.140311,-0.38963 z m 4.839475,6.43538 c 0.343008,0 0.642794,-0.10432 0.899251,-0.31192 0.256457,-0.20866 0.398579,-0.46841 0.426258,-0.78034 h 0.909684 c -0.01736,0.32257 -0.128175,0.62917 -0.332681,0.92087 -0.204506,0.29063 -0.47821,0.52271 -0.821324,0.69623 -0.339601,0.17353 -0.699962,0.25976 -1.081188,0.25976 -0.765858,0 -1.375756,-0.25444 -1.8298,-0.76437 -0.450424,-0.51313 -0.67569,-1.21255 -0.67569,-2.09935 v -0.16182 c 0,-0.54719 0.100499,-1.0337 0.30149,-1.4606 0.200992,-0.42583 0.488642,-0.75692 0.862842,-0.99219 0.377713,-0.23634 0.823027,-0.35451 1.335942,-0.35451 0.630657,0 1.154005,0.1895 1.56983,0.56742 0.419338,0.37793 0.6429,0.86764 0.670579,1.47126 H 89.65164 c -0.02768,-0.36409 -0.166287,-0.66217 -0.415825,-0.89425 -0.246024,-0.23634 -0.551026,-0.35344 -0.9149,-0.35344 -0.488642,0 -0.868059,0.17672 -1.138356,0.53016 -0.26689,0.35025 -0.400282,0.85699 -0.400282,1.52235 v 0.18204 c 0,0.64833 0.133392,1.14762 0.400282,1.49786 0.266784,0.34919 0.64801,0.52484 1.143572,0.52484 z m 4.361266,0.68027 h -0.961742 v -7.98435 h 0.961742 z m 3.877734,0.10433 c -0.762346,0 -1.382677,-0.24911 -1.860887,-0.7484 -0.478209,-0.50248 -0.717314,-1.17317 -0.717314,-2.01206 v -0.17672 c 0,-0.55784 0.105713,-1.055 0.317032,-1.49148 0.214833,-0.44073 0.512915,-0.78352 0.894141,-1.02944 0.384633,-0.24912 0.800458,-0.37474 1.247475,-0.37474 0.73126,0 1.299533,0.24166 1.705032,0.72286 0.405498,0.48225 0.608195,1.17103 0.608195,2.06954 v 0.40028 h -3.810239 c 0.01384,0.55358 0.175017,1.00284 0.483425,1.34563 0.311922,0.3396 0.706988,0.50993 1.185198,0.50993 0.339601,0 0.62725,-0.0692 0.862842,-0.20866 0.235698,-0.13839 0.441907,-0.3215 0.618627,-0.55038 l 0.58733,0.45777 c -0.47129,0.72391 -1.178172,1.08587 -2.120857,1.08587 z m -0.119553,-5.04185 c -0.388039,0 -0.713801,0.14159 -0.977178,0.42583 -0.263377,0.28105 -0.426258,0.67601 -0.488642,1.18488 h 2.817411 v -0.0724 c -0.02778,-0.48864 -0.159474,-0.86656 -0.395065,-1.13271 -0.235698,-0.2704 -0.55454,-0.4056 -0.956526,-0.4056 z"
       fill="black"
       id="path25"
       style="fill:#ab2826;fill-opacity:1;stroke:none;stroke-width:1;stroke-opacity:1"
       sodipodi:nodetypes="cccccscscccccccscscccccccccscscssscsscscccscscccscscscsscsccssscscccccsccccccccccccscsccsssccccccccccccccscssccscscccscccsscccccsccscccccscccccccccccscsccscscccccccsccccccscccccccscscssscsscccccscssccsccccscsscscccccscssccscscccscccsscccccs" />
    <path
       d="m 126.86837,177.23081 h 3.72755 v 0.84752 h -4.77091 v -7.86559 h 1.04336 z m 7.1796,0.95595 c -0.7922,0 -1.43724,-0.25891 -1.93403,-0.77782 -0.49678,-0.52224 -0.74573,-1.21929 -0.74573,-2.09115 v -0.18366 c 0,-0.57977 0.10954,-1.09648 0.32971,-1.55011 0.2235,-0.45806 0.5333,-0.81433 0.9294,-1.06992 0.39942,-0.2589 0.83203,-0.38945 1.29673,-0.38945 0.75901,0 1.34984,0.25115 1.77139,0.75126 0.42155,0.50121 0.63177,1.21707 0.63177,2.15089 v 0.41602 h -3.9599 c 0.0145,0.57534 0.18256,1.04225 0.50232,1.39852 0.32418,0.35295 0.73466,0.52998 1.23256,0.52998 0.35294,0 0.65168,-0.0719 0.8962,-0.21686 0.24563,-0.14383 0.45916,-0.33414 0.64283,-0.57202 l 0.61076,0.47576 c -0.49015,0.75237 -1.22483,1.12856 -2.20401,1.12856 z m -0.12392,-5.24004 c -0.40384,0 -0.74241,0.14715 -1.01569,0.44257 -0.2744,0.2921 -0.44369,0.70258 -0.50786,1.23145 h 2.9276 v -0.0752 c -0.0287,-0.50786 -0.16596,-0.90063 -0.41048,-1.17724 -0.24452,-0.28103 -0.57644,-0.42155 -0.99357,-0.42155 z m 4.05726,5.13161 v -5.07297 h -0.92386 v -0.77229 h 0.92386 v -0.59968 c 0,-0.62623 0.16708,-1.11085 0.50233,-1.45273 0.33413,-0.343 0.80769,-0.51339 1.42065,-0.51339 0.23014,0 0.45916,0.03 0.68598,0.0917 l -0.0541,0.80991 c -0.16929,-0.032 -0.34963,-0.0488 -0.53994,-0.0488 -0.32419,0 -0.57425,0.0963 -0.75126,0.28657 -0.17593,0.18698 -0.26444,0.45695 -0.26444,0.81101 v 0.61516 h 1.24805 v 0.7723 h -1.24805 v 5.07296 z m 4.71006,-7.26037 v 1.41511 h 1.09205 v 0.77229 h -1.09205 v 3.62576 c 0,0.23345 0.0488,0.41048 0.14606,0.52887 0.0973,0.11507 0.26333,0.17371 0.49677,0.17371 0.11619,0 0.2744,-0.0221 0.47577,-0.0653 v 0.80991 c -0.26333,0.0719 -0.51891,0.10843 -0.76676,0.10843 -0.44699,0 -0.78334,-0.13499 -1.01016,-0.40496 -0.22682,-0.26996 -0.34078,-0.65389 -0.34078,-1.15068 v -3.62576 h -1.06438 v -0.77229 h 1.06438 v -1.41511 z m 6.9373,5.90499 1.44721,-4.48988 h 1.02123 l -2.09557,5.84526 h -0.76233 l -2.1177,-5.84526 h 1.02123 z m 5.77997,1.46381 c -0.7922,0 -1.43614,-0.25891 -1.93403,-0.77782 -0.49679,-0.52224 -0.74463,-1.21929 -0.74463,-2.09115 v -0.18366 c 0,-0.57977 0.10953,-1.09648 0.32861,-1.55011 0.2235,-0.45806 0.5333,-0.81433 0.9294,-1.06992 0.40053,-0.2589 0.83203,-0.38945 1.29673,-0.38945 0.76012,0 1.35095,0.25115 1.7725,0.75126 0.42154,0.50121 0.63176,1.21707 0.63176,2.15089 v 0.41602 h -3.95989 c 0.0145,0.57534 0.18145,1.04225 0.50231,1.39852 0.32419,0.35295 0.73467,0.52998 1.23146,0.52998 0.35294,0 0.65168,-0.0719 0.89731,-0.21686 0.24452,-0.14383 0.45917,-0.33414 0.64283,-0.57202 l 0.61075,0.47576 c -0.49015,0.75237 -1.22481,1.12856 -2.20511,1.12856 z m -0.12392,-5.24004 c -0.40274,0 -0.7413,0.14715 -1.0157,0.44257 -0.27328,0.2921 -0.44257,0.70258 -0.50785,1.23145 h 2.92871 v -0.0752 c -0.0287,-0.50786 -0.16596,-0.90063 -0.41048,-1.17724 -0.24563,-0.28103 -0.57645,-0.42155 -0.99468,-0.42155 z m 4.5109,-0.71365 0.0333,0.73467 c 0.4459,-0.56206 1.03009,-0.84309 1.75038,-0.84309 1.23477,0 1.85769,0.69705 1.86874,2.09114 v 3.86254 h -0.99909 v -3.86807 c -0.003,-0.42155 -0.10063,-0.73246 -0.29211,-0.93382 -0.18697,-0.20248 -0.48017,-0.30316 -0.8807,-0.30316 -0.32419,0 -0.60855,0.0864 -0.85307,0.2589 -0.24561,0.17371 -0.43592,0.40053 -0.57311,0.68156 v 4.16459 h -0.99912 v -5.84526 z m 6.51574,-1.41511 v 1.41511 h 1.09094 v 0.77229 h -1.09094 v 3.62576 c 0,0.23345 0.0488,0.41048 0.14606,0.52887 0.0973,0.11507 0.26222,0.17371 0.49678,0.17371 0.11507,0 0.27329,-0.0221 0.47577,-0.0653 v 0.80991 c -0.26333,0.0719 -0.51892,0.10843 -0.76786,0.10843 -0.4459,0 -0.78336,-0.13499 -1.01017,-0.40496 -0.22682,-0.26996 -0.33967,-0.65389 -0.33967,-1.15068 v -3.62576 h -1.06439 v -0.77229 h 1.06439 v -1.41511 z m 5.08957,2.31242 c -0.15158,-0.0254 -0.31533,-0.0376 -0.49236,-0.0376 -0.65501,0 -1.09979,0.27882 -1.33435,0.83646 v 4.1491 h -0.9991 v -5.84526 h 0.97255 l 0.0155,0.67603 c 0.3286,-0.52334 0.7933,-0.78445 1.39409,-0.78445 0.19473,0 0.34189,0.0254 0.44368,0.0762 z m 2.00927,4.94795 h -0.9991 v -5.84526 h 0.9991 z m -1.08098,-7.39536 c 0,-0.16264 0.0488,-0.29874 0.14605,-0.41048 0.10063,-0.11175 0.24895,-0.16818 0.44367,-0.16818 0.19363,0 0.34189,0.0564 0.44257,0.16818 0.10063,0.11174 0.15158,0.24784 0.15158,0.41048 0,0.16154 -0.0508,0.29652 -0.15158,0.40496 -0.10063,0.10842 -0.24894,0.16153 -0.44257,0.16153 -0.19472,0 -0.34298,-0.0531 -0.44367,-0.16153 -0.0973,-0.10844 -0.14605,-0.24342 -0.14605,-0.40496 z m 5.02982,6.68835 c 0.35737,0 0.66827,-0.10843 0.93492,-0.32418 0.26665,-0.21687 0.41381,-0.48683 0.44257,-0.81102 h 0.946 c -0.0178,0.33525 -0.13277,0.6539 -0.34631,0.95707 -0.21243,0.30205 -0.49679,0.54325 -0.85306,0.7236 -0.35295,0.18034 -0.72802,0.26997 -1.12412,0.26997 -0.79552,0 -1.42951,-0.26444 -1.90084,-0.79442 -0.46913,-0.53329 -0.70259,-1.26022 -0.70259,-2.18187 v -0.16818 c 0,-0.5687 0.10397,-1.07434 0.31312,-1.51802 0.20912,-0.44257 0.50786,-0.78666 0.89731,-1.03118 0.39168,-0.24563 0.85527,-0.36844 1.38746,-0.36844 0.65612,0 1.19937,0.19694 1.63199,0.58972 0.43592,0.39278 0.66827,0.90174 0.69704,1.52908 h -0.946 c -0.0287,-0.3784 -0.1726,-0.68819 -0.4315,-0.9294 -0.25559,-0.24562 -0.57313,-0.36733 -0.95153,-0.36733 -0.50784,0 -0.90173,0.18366 -1.18276,0.551 -0.27772,0.36401 -0.41602,0.89067 -0.41602,1.58219 v 0.1892 c 0,0.67381 0.1383,1.19273 0.41602,1.55674 0.27771,0.36291 0.67381,0.54547 1.1883,0.54547 z m 4.53302,0.70701 h -0.9991 v -8.29821 h 0.9991 z m 4.03072,0.10843 c -0.79331,0 -1.43725,-0.25891 -1.93403,-0.77782 -0.4979,-0.52224 -0.74574,-1.21929 -0.74574,-2.09115 v -0.18366 c 0,-0.57977 0.10954,-1.09648 0.32972,-1.55011 0.22239,-0.45806 0.53219,-0.81433 0.92829,-1.06992 0.40052,-0.2589 0.83203,-0.38945 1.29673,-0.38945 0.76011,0 1.35094,0.25115 1.77249,0.75126 0.42156,0.50121 0.63178,1.21707 0.63178,2.15089 v 0.41602 h -3.95991 c 0.0145,0.57534 0.18146,1.04225 0.50232,1.39852 0.32418,0.35295 0.73467,0.52998 1.23145,0.52998 0.35296,0 0.6528,-0.0719 0.89732,-0.21686 0.24452,-0.14383 0.45916,-0.33414 0.64283,-0.57202 l 0.61075,0.47576 c -0.49015,0.75237 -1.22482,1.12856 -2.204,1.12856 z m -0.12503,-5.24004 c -0.40274,0 -0.74131,0.14715 -1.0157,0.44257 -0.27329,0.2921 -0.44257,0.70258 -0.50785,1.23145 h 2.92871 v -0.0752 c -0.0287,-0.50786 -0.16596,-0.90063 -0.41048,-1.17724 -0.24563,-0.28103 -0.57645,-0.42155 -0.99468,-0.42155 z"
       fill="black"
       id="path27"
       style="fill:#ab2826;fill-opacity:1;stroke:none;stroke-width:1;stroke-opacity:1"
       sodipodi:nodetypes="cccccccscssccscscccscccsscccccsscccccscsccscscccccccccccscsccsssccccccccccccccscssccscscccscccsscccccssccscccccscccccccccccscsccssscccccccsccccccscccccccscssscscsscccccscssccsccccscsscscccccscssccscscccscccsscccccss" />
    <line
       x1="116.024"
       y1="169"
       x2="116.024"
       y2="286.504"
       stroke="black"
       id="line29"
       style="fill:#ab2826;fill-opacity:1;stroke:#ab2826;stroke-opacity:1" />
    <path
       d="m 68.310742,244.62827 c -0.171628,-0.17136 -0.449853,-0.17136 -0.62148,0 l -2.796221,2.79631 c -0.171626,0.17225 -0.171626,0.44994 0,0.62219 0.17154,0.17138 0.449763,0.17138 0.621393,0 l 2.485568,-2.48607 2.485569,2.48607 c 0.171627,0.17138 0.449853,0.17138 0.621392,0 0.171627,-0.17225 0.171627,-0.44994 0,-0.62219 z M 68.439397,259 V 244.93937 H 67.560608 V 259 Z"
       fill="black"
       id="path33"
       style="fill:#ab2826;fill-opacity:1;stroke:none;stroke-width:1;stroke-opacity:1"
       sodipodi:nodetypes="ccccccccccccccc" />
    <path
       d="m 164.646,285.18216 c 0.196,0.29511 0.512,0.29511 0.708,0 l 3.182,-4.79111 c 0.195,-0.29361 0.195,-0.76941 0,-1.06453 -0.196,-0.29361 -0.512,-0.29361 -0.708,0 l -2.828,4.2596 -2.828,-4.2596 c -0.196,-0.29361 -0.512,-0.29361 -0.708,0 -0.195,0.29512 -0.195,0.77092 0,1.06453 z M 164.5,237.00001 v 47.65064 h 1 v -47.65064 z"
       fill="black"
       id="path35"
       style="fill:#ab2826;fill-opacity:1;stroke:none;stroke-width:1;stroke-opacity:1"
       sodipodi:nodetypes="ssscccccssccccc" />
    <path
       d="m 171.5202,96.3536 c 0.23149,-0.1953 0.23149,-0.5119 0,-0.7072 l -3.77744,-3.1819 c -0.23267,-0.1953 -0.6078,-0.1953 -0.84048,0 -0.23149,0.1952 -0.23149,0.5118 0,0.7071 l 3.35838,2.8284 -3.35838,2.8284 c -0.23149,0.1953 -0.23149,0.5119 0,0.7071 0.23268,0.1953 0.60781,0.1953 0.84048,0 z M 138.746,96.5 h 32.35396 v -1 H 138.746 Z"
       fill="black"
       id="path37"
       style="fill:#ab2826;fill-opacity:1;stroke:none;stroke-width:1;stroke-opacity:1"
       sodipodi:nodetypes="ccccccccccccccc" />
    <path
       d="m 82.274237,96.3536 c 0.151025,-0.1953 0.151025,-0.5119 0,-0.7072 l -2.461901,-3.1819 c -0.151103,-0.1953 -0.396055,-0.1953 -0.547081,0 -0.151102,0.1952 -0.151102,0.5118 0,0.7071 L 81.453577,96 79.265255,98.8284 c -0.151102,0.1953 -0.151102,0.5119 0,0.7071 0.151026,0.1953 0.395978,0.1953 0.547081,0 z M 71.7464,96.5 h 10.254258 v -1 H 71.7464 Z"
       fill="black"
       id="path39"
       style="fill:#ab2826;fill-opacity:1;stroke:none;stroke-width:1;stroke-opacity:1"
       sodipodi:nodetypes="ccccscscccccccc"
       inkscape:export-filename="../background-heart-lung-interactions.pdf"
       inkscape:export-xdpi="300"
       inkscape:export-ydpi="300" />
    <text
       xml:space="preserve"
       style="font-size:12px;line-height:1.25;font-family:sans-serif"
       x="29.146858"
       y="37.416084"
       id="text3462"
       inkscape:export-filename="../background-heart-lung-interactions.png"
       inkscape:export-xdpi="300"
       inkscape:export-ydpi="300"><tspan
         sodipodi:role="line"
         id="tspan3460"
         x="29.146858"
         y="37.416084"
         style="font-size:12px;fill:#43658b">Thorax</tspan></text>
    <path
       d="m 113.64974,51.18216 c 0.196,0.29511 0.512,0.29511 0.708,0 l 3.182,-4.79111 c 0.195,-0.29361 0.195,-0.76941 0,-1.06453 -0.196,-0.29361 -0.512,-0.29361 -0.708,0 l -2.828,4.2596 -2.828,-4.2596 c -0.196,-0.29361 -0.512,-0.29361 -0.708,0 -0.195,0.29512 -0.195,0.77092 0,1.06453 z m -0.146,-48.18215 v 47.65064 h 1 V 3.00001 Z"
       fill="black"
       id="path294"
       style="fill:#43658b;fill-opacity:1;stroke:none;stroke-width:1;stroke-opacity:1"
       sodipodi:nodetypes="ssscccccssccccc" />
  </g>
  <defs
     id="defs46">
    <clipPath
       id="clip0_3_57">
      <rect
         width="230"
         height="335"
         fill="white"
         id="rect43" />
    </clipPath>
  </defs>
</svg>
